<svg width="126" height="125" xmlns="http://www.w3.org/2000/svg" xmlns:xlink="http://www.w3.org/1999/xlink" xml:space="preserve" overflow="hidden"><defs><clipPath id="clip0"><rect x="2894" y="248" width="126" height="125"/></clipPath><clipPath id="clip1"><rect x="2894" y="248" width="126" height="125"/></clipPath><clipPath id="clip2"><rect x="2895" y="249" width="124" height="124"/></clipPath><clipPath id="clip3"><rect x="2895" y="249" width="124" height="124"/></clipPath><clipPath id="clip4"><rect x="2895" y="249" width="124" height="124"/></clipPath><clipPath id="clip5"><path d="M3016.79 309.111C3014.98 307.092 3011.87 306.918 3009.85 308.72L3003.16 314.632 3002.88 314.893C2998.21 319.068 2993.57 323.3 2988.98 327.588 2985.61 330.735 2986.35 335.825 2990.42 337.609 2991.32 337.918 2992.25 338.117 2993.2 338.2 2999.19 339.079 3003.33 344.643 3002.45 350.627 3002.44 350.683 3002.43 350.739 3002.42 350.795 3001.27 356.773 2995.5 360.689 2989.52 359.541 2984.72 358.62 2981.1 354.653 2980.63 349.793 2980.63 349.382 2980.63 348.972 2980.56 348.561 2980.48 346.302 2979.17 344.269 2977.14 343.27 2974.96 342.163 2972.31 342.597 2970.6 344.342 2965.84 348.651 2961.09 352.95 2956.38 357.308 2955.13 358.461 2954.19 358.471 2952.96 356.767 2951.82 355.165 2950.5 353.702 2949.02 352.408 2947.17 350.825 2946.84 350.014 2948.54 348.992 2958.57 342.901 2962.15 330.079 2956.74 319.672 2949.73 304.472 2928.79 302.317 2918.55 315.574 2917.14 317.398 2917.03 317.328 2915.29 315.424 2911.93 311.746 2908.61 308.029 2905.19 304.402 2903.17 302.043 2899.62 301.768 2897.26 303.787 2897.21 303.831 2897.16 303.876 2897.11 303.921 2894.69 305.992 2894.4 309.635 2896.47 312.058 2896.5 312.095 2896.54 312.131 2896.57 312.167 2902.73 319.108 2908.95 325.992 2915.25 332.819 2916.71 334.439 2919.01 335.006 2921.06 334.252 2923.13 333.605 2924.67 331.865 2925.07 329.733 2925.27 328.325 2925.6 326.939 2926.07 325.594 2928.71 318.861 2937.87 316.506 2943.16 321.216 2946.99 324.632 2948.17 328.901 2946.59 333.591 2945.21 337.699 2941.27 340.514 2936.4 340.835 2935.09 340.845 2933.81 341.191 2932.68 341.837 2929.32 343.951 2928.97 347.98 2931.99 351.356 2937.63 357.659 2943.35 363.902 2949.02 370.144 2952.35 373.782 2955.39 373.992 2959.04 370.725 2962.7 367.459 2966.15 364.343 2969.58 361.016 2970.94 359.703 2971.58 359.954 2972.4 361.477 2973.97 364.214 2976.19 366.524 2978.86 368.2 2989.48 375.116 3003.69 372.118 3010.6 361.506 3011.19 360.602 3011.72 359.658 3012.17 358.681 3016.8 349.071 3013.97 337.531 3005.43 331.146 3004.03 330.083 3004.33 329.442 3005.43 328.48 3009.1 325.214 3012.75 321.937 3016.36 318.6 3019.64 315.594 3019.83 312.488 3016.83 309.151Z" fill-rule="nonzero" clip-rule="nonzero"/></clipPath></defs><g clip-path="url(#clip0)" transform="translate(-2894 -248)"><g clip-path="url(#clip1)"><g clip-path="url(#clip2)"><g clip-path="url(#clip3)"><g clip-path="url(#clip4)"><path d="M2958.55 279.802C2960.28 277.003 2962.64 274.652 2965.45 272.938 2966.71 272.197 2966.94 271.555 2965.88 270.453 2964.17 268.68 2962.5 266.886 2960.92 265.012 2959.74 263.609 2958.77 263.519 2957.38 264.822 2952.95 268.98 2948.36 272.978 2943.93 277.107 2941.84 279.051 2939.55 279.902 2936.85 278.71 2934.14 277.517 2933.45 275.453 2933.38 272.748 2933.38 267.866 2930.09 263.599 2925.37 262.357 2920.76 261.04 2915.82 262.82 2913.11 266.776 2910.63 270.691 2910.77 275.724 2913.47 279.491 2915.36 282.053 2918.26 283.689 2921.43 283.991 2925.49 284.542 2927.59 287.217 2926.95 290.844 2926.39 293.971 2923.77 295.854 2920.38 295.654 2906.35 294.652 2896.43 280.193 2900.51 266.706 2904.02 254.563 2916.7 247.563 2928.85 251.072 2930.89 251.662 2932.83 252.532 2934.63 253.659 2937.43 255.407 2939.76 257.79 2941.46 260.613 2942.36 262.076 2943.15 262.026 2944.33 260.934 2947.84 257.688 2951.42 254.531 2954.95 251.315 2958.47 248.098 2961.46 248.259 2964.53 251.615 2970.38 258.008 2976.2 264.421 2982 270.854 2984.82 274.01 2984.63 277.758 2981.72 280.023 2980.48 280.903 2978.99 281.334 2977.47 281.245 2973.39 281.141 2969.63 283.455 2967.89 287.147 2965.69 291.335 2966.21 295.484 2969.13 299.231 2970.77 301.305 2971.6 303.5 2970.45 306.045 2969.13 308.984 2965.68 310.3 2962.74 308.983 2962.04 308.67 2961.41 308.224 2960.89 307.668 2953.89 300.654 2952.88 288.61 2958.55 279.802Z" fill="#070707" fill-rule="nonzero" fill-opacity="1"/><path d="M2997.2 313.159 2997.2 313.159C2999.65 310.998 2999.88 307.261 2997.72 304.815 2997.7 304.793 2997.68 304.773 2997.66 304.752 2995.34 302.197 2986.81 292.668 2984.49 290.113 2983.92 289.431 2983.19 288.9 2982.36 288.57 2979.78 287.627 2976.88 288.462 2975.2 290.634 2973.68 292.944 2973.93 295.991 2975.81 298.019 2978.09 300.594 2986.58 310.143 2988.88 312.688 2991.06 315.103 2994.77 315.314 2997.2 313.159Z" fill="#07A5E2" fill-rule="nonzero" fill-opacity="1"/><path d="M2989.4 312.228 2989.4 312.228C2991.56 314.677 2995.3 314.907 2997.75 312.741 2997.77 312.723 2997.79 312.705 2997.81 312.688L3005.46 305.674C3006.14 305.108 3006.67 304.377 3007 303.55 3007.95 300.97 3007.12 298.072 3004.95 296.386 3002.64 294.862 2999.58 295.115 2997.55 296.997 2994.99 299.281 2992.42 301.566 2989.87 303.881 2987.44 306.058 2987.23 309.791 2989.4 312.228Z" fill="#07A5E2" fill-rule="nonzero" fill-opacity="1"/><path d="M3016.79 309.111C3014.98 307.092 3011.87 306.918 3009.85 308.72L3003.16 314.632 3002.88 314.893C2998.21 319.068 2993.57 323.3 2988.98 327.588 2985.61 330.735 2986.35 335.825 2990.42 337.609 2991.32 337.918 2992.25 338.117 2993.2 338.2 2999.19 339.079 3003.33 344.643 3002.45 350.627 3002.44 350.683 3002.43 350.739 3002.42 350.795 3001.27 356.773 2995.5 360.689 2989.52 359.541 2984.72 358.62 2981.1 354.653 2980.63 349.793 2980.63 349.382 2980.63 348.972 2980.56 348.561 2980.48 346.302 2979.17 344.269 2977.14 343.27 2974.96 342.163 2972.31 342.597 2970.6 344.342 2965.84 348.651 2961.09 352.95 2956.38 357.308 2955.13 358.461 2954.19 358.471 2952.96 356.767 2951.82 355.165 2950.5 353.702 2949.02 352.408 2947.17 350.825 2946.84 350.014 2948.54 348.992 2958.57 342.901 2962.15 330.079 2956.74 319.672 2949.73 304.472 2928.79 302.318 2918.55 315.574 2917.14 317.398 2917.03 317.328 2915.29 315.424 2911.93 311.747 2908.61 308.029 2905.19 304.402 2903.17 302.043 2899.62 301.768 2897.26 303.787 2897.21 303.831 2897.16 303.876 2897.11 303.921 2894.69 305.992 2894.4 309.635 2896.47 312.058 2896.5 312.095 2896.54 312.131 2896.57 312.167 2902.73 319.108 2908.95 325.992 2915.25 332.819 2916.71 334.439 2919.01 335.006 2921.06 334.252 2923.13 333.605 2924.67 331.865 2925.07 329.733 2925.27 328.325 2925.6 326.939 2926.07 325.594 2928.71 318.861 2937.87 316.506 2943.16 321.216 2946.99 324.632 2948.17 328.901 2946.59 333.591 2945.21 337.699 2941.27 340.514 2936.4 340.835 2935.09 340.845 2933.81 341.191 2932.68 341.837 2929.32 343.951 2928.97 347.98 2931.99 351.356 2937.63 357.659 2943.35 363.902 2949.02 370.144 2952.35 373.782 2955.39 373.992 2959.04 370.725 2962.7 367.459 2966.15 364.343 2969.58 361.016 2970.94 359.703 2971.58 359.954 2972.4 361.477 2973.97 364.214 2976.19 366.524 2978.86 368.2 2989.48 375.116 3003.69 372.118 3010.6 361.506 3011.19 360.602 3011.72 359.658 3012.17 358.681 3016.8 349.071 3013.97 337.531 3005.43 331.146 3004.03 330.083 3004.33 329.442 3005.43 328.48 3009.09 325.214 3012.75 321.937 3016.36 318.6 3019.64 315.594 3019.83 312.488 3016.83 309.151Z" fill="#070707" fill-rule="nonzero" fill-opacity="1"/><g clip-path="url(#clip5)"><path d="M2962.55 329.232C2962.55 342.303 2951.55 352.899 2937.97 352.899 2924.4 352.899 2913.39 342.303 2913.39 329.232 2913.39 316.16 2924.4 305.564 2937.97 305.564 2951.55 305.564 2962.55 316.16 2962.55 329.232Z" fill="#07A5E2" fill-rule="nonzero" fill-opacity="1"/><path d="M2944.87 367.649 2930.94 351.657 2946.04 344.803 2956.34 357.318 2944.87 367.649Z" fill="#07A5E2" fill-rule="nonzero" fill-opacity="1"/></g></g></g></g></g></g></svg>